# Rhino

mtllib obj_18.mtl
usemtl diffuse_ControlText
v 6.1219792366027832 -3.0236608982086182 0
v 6.1219792366027832 -3.0236608982086182 0.44999998807907104
v 6.2478299140930176 -2.9716796875 0
v 6.2478299140930176 -2.9716796875 0.44999998807907104
v 6.1849045753479004 -2.9976701736450195 0
v 6.2478299140930176 -2.9716796875 0.22499999403953552
v 6.1219792366027832 -3.0236608982086182 0.22499999403953552
v 6.2478299140930176 -2.9716796875 0
v 6.2478299140930176 -2.9716796875 0.44999998807907104
v 6.1674604415893555 -2.7770988941192627 0
v 6.1674604415893555 -2.7770988941192627 0.44999998807907104
v 6.2478299140930176 -2.9716796875 0.22499999403953552
v 6.2210402488708496 -2.9068193435668945 0
v 6.1942501068115234 -2.8419592380523682 0
v 6.1674604415893555 -2.7770988941192627 0.22499999403953552
v 6.1674604415893555 -2.7770988941192627 0
v 6.1674604415893555 -2.7770988941192627 0.44999998807907104
v 6.0416097640991211 -2.8290801048278809 0
v 6.0416097640991211 -2.8290801048278809 0.44999998807907104
v 6.1674604415893555 -2.7770988941192627 0.22499999403953552
v 6.1045351028442383 -2.8030893802642822 0
v 6.0416097640991211 -2.8290801048278809 0.22499999403953552
v 6.0416097640991211 -2.8290801048278809 0
v 6.0416097640991211 -2.8290801048278809 0.44999998807907104
v 6.1219792366027832 -3.0236608982086182 0
v 6.1219792366027832 -3.0236608982086182 0.44999998807907104
v 6.1219792366027832 -3.0236608982086182 0.22499999403953552
v 6.0416097640991211 -2.8290801048278809 0.22499999403953552
v 6.0683994293212891 -2.8939404487609863 0
v 6.0951895713806152 -2.9588005542755127 0
v 6.0817947387695312 -2.92637038230896 0.44999998807907104
v 6.1219792366027832 -3.0236608982086182 0
v 6.0416097640991211 -2.8290801048278809 0
v 6.2478299140930176 -2.9716796875 0
v 6.1674604415893555 -2.7770988941192627 0
v 6.1849045753479004 -2.9976701736450195 0
v 6.2210402488708496 -2.9068193435668945 0
v 6.1942501068115234 -2.8419592380523682 0
v 6.1045351028442383 -2.8030893802642822 0
v 6.0683994293212891 -2.8939404487609863 0
v 6.0951895713806152 -2.9588005542755127 0
v 6.4502034187316895 -2.6603150367736816 0.62999999523162842
v 6.4502034187316895 -2.6603150367736816 0.44999998807907104
v 6.5305728912353516 -2.8548958301544189 0.62999999523162842
v 6.5305728912353516 -2.8548958301544189 0.44999998807907104
v 6.4903879165649414 -2.7576053142547607 0.62999999523162842
v 6.5305728912353516 -2.8548958301544189 0.54000002145767212
v 6.4903879165649414 -2.7576053142547607 0.44999998807907104
v 6.4502034187316895 -2.6603150367736816 0.54000002145767212
v 6.5305728912353516 -2.8548958301544189 0.62999999523162842
v 6.5305728912353516 -2.8548958301544189 0.44999998807907104
v 6.1219792366027832 -3.0236608982086182 0.62999999523162842
v 6.1219792366027832 -3.0236608982086182 0.44999998807907104
v 6.2478299140930176 -2.9716796875 0.44999998807907104
v 6.5305728912353516 -2.8548958301544189 0.54000002145767212
v 6.3943748474121094 -2.9111506938934326 0.62999999523162842
v 6.2581772804260254 -2.9674057960510254 0.62999999523162842
v 6.1219792366027832 -3.0236608982086182 0.54000002145767212
v 6.3892011642456055 -2.9132876396179199 0.44999998807907104
v 6.1219792366027832 -3.0236608982086182 0.62999999523162842
v 6.1219792366027832 -3.0236608982086182 0.44999998807907104
v 6.0416097640991211 -2.8290801048278809 0.62999999523162842
v 6.0416097640991211 -2.8290801048278809 0.44999998807907104
v 6.0817947387695312 -2.92637038230896 0.44999998807907104
v 6.1219792366027832 -3.0236608982086182 0.54000002145767212
v 6.0817947387695312 -2.92637038230896 0.62999999523162842
v 6.0416097640991211 -2.8290801048278809 0.54000002145767212
v 6.0416097640991211 -2.8290801048278809 0.62999999523162842
v 6.0416097640991211 -2.8290801048278809 0.44999998807907104
v 6.4502034187316895 -2.6603150367736816 0.62999999523162842
v 6.4502034187316895 -2.6603150367736816 0.44999998807907104
v 6.1674604415893555 -2.7770988941192627 0.44999998807907104
v 6.4502034187316895 -2.6603150367736816 0.54000002145767212
v 6.0416097640991211 -2.8290801048278809 0.54000002145767212
v 6.1778078079223633 -2.7728250026702881 0.62999999523162842
v 6.3140053749084473 -2.7165701389312744 0.62999999523162842
v 6.3088316917419434 -2.7187068462371826 0.44999998807907104
v 6.4502034187316895 -2.6603150367736816 0.62999999523162842
v 6.0416097640991211 -2.8290801048278809 0.62999999523162842
v 6.5305728912353516 -2.8548958301544189 0.62999999523162842
v 6.1219792366027832 -3.0236608982086182 0.62999999523162842
v 6.4903879165649414 -2.7576053142547607 0.62999999523162842
v 6.3943748474121094 -2.9111506938934326 0.62999999523162842
v 6.2581772804260254 -2.9674057960510254 0.62999999523162842
v 6.0817947387695312 -2.92637038230896 0.62999999523162842
v 6.1778078079223633 -2.7728250026702881 0.62999999523162842
v 6.3140053749084473 -2.7165701389312744 0.62999999523162842
v 6.4502034187316895 -2.6603150367736816 0.44999998807907104
v 6.1674604415893555 -2.7770988941192627 0.44999998807907104
v 6.5305728912353516 -2.8548958301544189 0.44999998807907104
v 6.2478299140930176 -2.9716796875 0.44999998807907104
v 6.4903879165649414 -2.7576053142547607 0.44999998807907104
v 6.3892011642456055 -2.9132876396179199 0.44999998807907104
v 6.3088316917419434 -2.7187068462371826 0.44999998807907104
vt 0.68846839666366577 0.37835279107093811
vt 0.68846839666366577 0.78125452995300293
vt 0.80935877561569214 0.37835279107093811
vt 0.80935877561569214 0.78125452995300293
vt 0.74891358613967896 0.37835279107093811
vt 0.80935877561569214 0.57980364561080933
vt 0.68846839666366577 0.57980364561080933
vt 0.80873310565948486 0.18917639553546906
vt 0.40436655282974243 0.18917639553546906
vt 0.80873310565948486 0.37688794732093811
vt 0.40436655282974243 0.37688794732093811
vt 0.60654979944229126 0.18917639553546906
vt 0.80873310565948486 0.25174692273139954
vt 0.80873310565948486 0.31431743502616882
vt 0.60654979944229126 0.37688794732093811
vt 0.5661131739616394 0.37835279107093811
vt 0.5661131739616394 0.78125452995300293
vt 0.68700355291366577 0.37835279107093811
vt 0.68700355291366577 0.78125452995300293
vt 0.5661131739616394 0.57980364561080933
vt 0.62655836343765259 0.37835279107093811
vt 0.68700355291366577 0.57980364561080933
vt 0.40290170907974243 0.57174426317214966
vt 0 0.57174426317214966
vt 0.40290170907974243 0.76092064380645752
vt 0 0.76092064380645752
vt 0.20145085453987122 0.76092064380645752
vt 0.20145085453987122 0.57174426317214966
vt 0.40290170907974243 0.63480305671691895
vt 0.40290170907974243 0.69786185026168823
vt 0 0.66633248329162598
vt 0.40436655282974243 0
vt 0.40436655282974243 0.18771155178546906
vt 0.5267217755317688 0
vt 0.5267217755317688 0.18771155178546906
vt 0.46554416418075562 0
vt 0.5267217755317688 0.062570519745349884
vt 0.5267217755317688 0.12514103949069977
vt 0.46554416418075562 0.18771155178546906
vt 0.40436655282974243 0.12514103949069977
vt 0.40436655282974243 0.062570519745349884
vt 0.5646483302116394 0.37835279107093811
vt 0.40436655282974243 0.37835279107093811
vt 0.5646483302116394 0.56752920150756836
vt 0.40436655282974243 0.56752920150756836
vt 0.5646483302116394 0.47294101119041443
vt 0.48450744152069092 0.56752920150756836
vt 0.40436655282974243 0.47294101119041443
vt 0.48450744152069092 0.37835279107093811
vt 0 0
vt 0 0.16174662113189697
vt 0.39724525809288025 0
vt 0.39724525809288025 0.16174662113189697
vt 0.27489003539085388 0.16174662113189697
vt 0 0.080873310565948486
vt 0.13241508603096008 0
vt 0.26483017206192017 0
vt 0.39724525809288025 0.080873310565948486
vt 0.13744501769542694 0.16174662113189697
vt 0.82263690233230591 0
vt 0.66089028120040894 0
vt 0.82263690233230591 0.18771155178546906
vt 0.66089028120040894 0.18771155178546906
vt 0.66089028120040894 0.093855775892734528
vt 0.74176359176635742 0
vt 0.82263690233230591 0.093855775892734528
vt 0.74176359176635742 0.18771155178546906
vt 0 0.18038459122180939
vt 0 0.34213119745254517
vt 0.39724525809288025 0.18038459122180939
vt 0.39724525809288025 0.34213119745254517
vt 0.12235522270202637 0.34213119745254517
vt 0.39724525809288025 0.26125788688659668
vt 0 0.26125788688659668
vt 0.13241508603096008 0.18038459122180939
vt 0.26483017206192017 0.18038459122180939
vt 0.25980022549629211 0.34213119745254517
vt 0.39724525809288025 0.36076918244361877
vt 0 0.36076918244361877
vt 0.39724525809288025 0.54994559288024902
vt 0 0.54994559288024902
vt 0.39724525809288025 0.45535737276077271
vt 0.26483017206192017 0.54994559288024902
vt 0.13241507112979889 0.54994559288024902
vt 0 0.45535737276077271
vt 0.13241507112979889 0.36076918244361877
vt 0.26483017206192017 0.36076918244361877
vt 0.81082361936569214 0.37835279107093811
vt 0.81082361936569214 0.65324282646179199
vt 0.99853515625 0.37835279107093811
vt 0.99853515625 0.65324282646179199
vt 0.90467935800552368 0.37835279107093811
vt 0.99853515625 0.51579779386520386
vt 0.81082361936569214 0.51579779386520386
vn 0.38175660371780396 -0.9242628812789917 0
vn 0.38175660371780396 -0.9242628812789917 0
vn 0.38175660371780396 -0.9242628812789917 0
vn 0.38175660371780396 -0.9242628812789917 0
vn 0.38175660371780396 -0.9242628812789917 0
vn 0.38175660371780396 -0.9242628812789917 0
vn 0.38175660371780396 -0.9242628812789917 0
vn 0.9242628812789917 0.38175660371780396 0
vn 0.9242628812789917 0.38175660371780396 0
vn 0.9242628812789917 0.38175660371780396 0
vn 0.9242628812789917 0.38175660371780396 0
vn 0.9242628812789917 0.38175660371780396 0
vn 0.9242628812789917 0.38175660371780396 0
vn 0.9242628812789917 0.38175660371780396 0
vn 0.9242628812789917 0.38175660371780396 0
vn -0.38175660371780396 0.9242628812789917 0
vn -0.38175660371780396 0.9242628812789917 0
vn -0.38175660371780396 0.9242628812789917 0
vn -0.38175660371780396 0.9242628812789917 0
vn -0.38175660371780396 0.9242628812789917 0
vn -0.38175660371780396 0.9242628812789917 0
vn -0.38175660371780396 0.9242628812789917 0
vn -0.9242628812789917 -0.38175660371780396 0
vn -0.9242628812789917 -0.38175660371780396 0
vn -0.9242628812789917 -0.38175660371780396 0
vn -0.9242628812789917 -0.38175660371780396 0
vn -0.9242628812789917 -0.38175660371780396 0
vn -0.9242628812789917 -0.38175660371780396 0
vn -0.9242628812789917 -0.38175660371780396 0
vn -0.9242628812789917 -0.38175660371780396 0
vn -0.9242628812789917 -0.38175660371780396 0
vn 0 0 -1
vn 0 0 -1
vn 0 0 -1
vn 0 0 -1
vn 0 0 -1
vn 0 0 -1
vn 0 0 -1
vn 0 0 -1
vn 0 0 -1
vn 0 0 -1
vn 0.9242628812789917 0.38175660371780396 0
vn 0.9242628812789917 0.38175660371780396 0
vn 0.9242628812789917 0.38175660371780396 0
vn 0.9242628812789917 0.38175660371780396 0
vn 0.9242628812789917 0.38175660371780396 0
vn 0.9242628812789917 0.38175660371780396 0
vn 0.9242628812789917 0.38175660371780396 0
vn 0.9242628812789917 0.38175660371780396 0
vn 0.38175660371780396 -0.9242628812789917 0
vn 0.38175660371780396 -0.9242628812789917 0
vn 0.38175660371780396 -0.9242628812789917 0
vn 0.38175660371780396 -0.9242628812789917 0
vn 0.38175660371780396 -0.9242628812789917 0
vn 0.38175660371780396 -0.9242628812789917 0
vn 0.38175660371780396 -0.9242628812789917 0
vn 0.38175660371780396 -0.9242628812789917 0
vn 0.38175660371780396 -0.9242628812789917 0
vn 0.38175660371780396 -0.9242628812789917 0
vn -0.9242628812789917 -0.38175660371780396 0
vn -0.9242628812789917 -0.38175660371780396 0
vn -0.9242628812789917 -0.38175660371780396 0
vn -0.9242628812789917 -0.38175660371780396 0
vn -0.9242628812789917 -0.38175660371780396 0
vn -0.9242628812789917 -0.38175660371780396 0
vn -0.9242628812789917 -0.38175660371780396 0
vn -0.9242628812789917 -0.38175660371780396 0
vn -0.38175660371780396 0.9242628812789917 0
vn -0.38175660371780396 0.9242628812789917 0
vn -0.38175660371780396 0.9242628812789917 0
vn -0.38175660371780396 0.9242628812789917 0
vn -0.38175660371780396 0.9242628812789917 0
vn -0.38175660371780396 0.9242628812789917 0
vn -0.38175660371780396 0.9242628812789917 0
vn -0.38175660371780396 0.9242628812789917 0
vn -0.38175660371780396 0.9242628812789917 0
vn -0.38175660371780396 0.9242628812789917 0
vn 0 0 1
vn 0 0 1
vn 0 0 1
vn 0 0 1
vn 0 0 1
vn 0 0 1
vn 0 0 1
vn 0 0 1
vn 0 0 1
vn 0 0 1
vn 0 0 -1
vn 0 0 -1
vn 0 0 -1
vn 0 0 -1
vn 0 0 -1
vn 0 0 -1
vn 0 0 -1
f 5/5/5 7/7/7 1/1/1
f 2/2/2 7/7/7 6/6/6 4/4/4
f 6/6/6 5/5/5 3/3/3
f 5/5/5 6/6/6 7/7/7
f 12/12/12 8/8/8 13/13/13
f 9/9/9 12/12/12 15/15/15 11/11/11
f 14/14/14 12/12/12 13/13/13
f 15/15/15 14/14/14 10/10/10
f 14/14/14 15/15/15 12/12/12
f 21/21/21 20/20/20 16/16/16
f 17/17/17 20/20/20 22/22/22 19/19/19
f 22/22/22 21/21/21 18/18/18
f 21/21/21 22/22/22 20/20/20
f 28/28/28 23/23/23 29/29/29
f 28/28/28 31/31/31 24/24/24
f 30/30/30 28/28/28 29/29/29
f 27/27/27 30/30/30 25/25/25
f 26/26/26 31/31/31 27/27/27
f 27/27/27 31/31/31 28/28/28
f 30/30/30 27/27/27 28/28/28
f 40/40/40 38/38/38 37/37/37 41/41/41
f 33/33/33 39/39/39 40/40/40
f 40/40/40 39/39/39 38/38/38
f 36/36/36 32/32/32 41/41/41
f 37/37/37 34/34/34 36/36/36
f 38/38/38 39/39/39 35/35/35
f 37/37/37 36/36/36 41/41/41
f 49/49/49 42/42/42 46/46/46
f 49/49/49 48/48/48 43/43/43
f 48/48/48 49/49/49 46/46/46
f 46/46/46 47/47/47 48/48/48
f 47/47/47 45/45/45 48/48/48
f 44/44/44 47/47/47 46/46/46
f 55/55/55 50/50/50 56/56/56
f 51/51/51 55/55/55 59/59/59
f 56/56/56 59/59/59 55/55/55
f 56/56/56 57/57/57 54/54/54 59/59/59
f 58/58/58 57/57/57 52/52/52
f 53/53/53 54/54/54 58/58/58
f 57/57/57 58/58/58 54/54/54
f 66/66/66 64/64/64 65/65/65
f 65/65/65 64/64/64 61/61/61
f 66/66/66 65/65/65 60/60/60
f 67/67/67 66/66/66 62/62/62
f 67/67/67 63/63/63 64/64/64
f 66/66/66 67/67/67 64/64/64
f 74/74/74 68/68/68 75/75/75
f 69/69/69 74/74/74 72/72/72
f 75/75/75 72/72/72 74/74/74
f 77/77/77 72/72/72 75/75/75 76/76/76
f 73/73/73 76/76/76 70/70/70
f 71/71/71 77/77/77 73/73/73
f 76/76/76 73/73/73 77/77/77
f 82/82/82 87/87/87 85/85/85
f 79/79/79 85/85/85 86/86/86
f 87/87/87 86/86/86 85/85/85
f 82/82/82 78/78/78 87/87/87
f 83/83/83 80/80/80 82/82/82
f 83/83/83 85/85/85 84/84/84
f 84/84/84 85/85/85 81/81/81
f 83/83/83 82/82/82 85/85/85
f 92/92/92 94/94/94 88/88/88
f 89/89/89 94/94/94 93/93/93 91/91/91
f 93/93/93 92/92/92 90/90/90
f 92/92/92 93/93/93 94/94/94
