# Rhino

mtllib obj_2.mtl
usemtl diffuse_ControlText
v -3.2232556343078613 2.7354996204376221 0
v -3.2232556343078613 2.7354996204376221 0.44999998807907104
v -3.5052046775817871 2.6149461269378662 0
v -3.5052046775817871 2.6149461269378662 0.44999998807907104
v -3.3642301559448242 2.6752228736877441 0
v -3.5052046775817871 2.6149461269378662 0.22499999403953552
v -3.3642301559448242 2.6752228736877441 0.44999998807907104
v -3.2232556343078613 2.7354996204376221 0.22499999403953552
v -3.5052046775817871 2.6149461269378662 0
v -3.5052046775817871 2.6149461269378662 0.44999998807907104
v -3.4461894035339355 2.4769217967987061 0
v -3.4461894035339355 2.4769217967987061 0.44999998807907104
v -3.5052046775817871 2.6149461269378662 0.22499999403953552
v -3.4461894035339355 2.4769217967987061 0.22499999403953552
v -3.4461894035339355 2.4769217967987061 0
v -3.4461894035339355 2.4769217967987061 0.44999998807907104
v -3.1642401218414307 2.5974750518798828 0
v -3.1642401218414307 2.5974750518798828 0.44999998807907104
v -3.4461894035339355 2.4769217967987061 0.22499999403953552
v -3.3052148818969727 2.537198543548584 0
v -3.1642401218414307 2.5974750518798828 0.22499999403953552
v -3.3052148818969727 2.537198543548584 0.44999998807907104
v -3.2232556343078613 2.7354996204376221 0
v -3.1642401218414307 2.5974750518798828 0
v -3.5052046775817871 2.6149461269378662 0
v -3.4461894035339355 2.4769217967987061 0
v -3.3642301559448242 2.6752228736877441 0
v -3.3052148818969727 2.537198543548584 0
v -3.2232556343078613 2.7354996204376221 0.44999998807907104
v -3.1642401218414307 2.5974750518798828 0.44999998807907104
v -3.5052046775817871 2.6149461269378662 0.44999998807907104
v -3.4461894035339355 2.4769217967987061 0.44999998807907104
v -3.3642301559448242 2.6752228736877441 0.44999998807907104
v -3.3052148818969727 2.537198543548584 0.44999998807907104
v -2.7067136764526367 3.2737517356872559 0
v -2.7067136764526367 3.2737517356872559 0.44999998807907104
v -2.9894566535949707 3.1569678783416748 0
v -2.9894566535949707 3.1569678783416748 0.44999998807907104
v -2.9894566535949707 3.1569678783416748 0.22499999403953552
v -2.7067136764526367 3.2737517356872559 0.22499999403953552
v -2.9894566535949707 3.1569678783416748 0
v -2.9894566535949707 3.1569678783416748 0.44999998807907104
v -3.1037018299102783 3.4335649013519287 0
v -3.1037018299102783 3.4335649013519287 0.44999998807907104
v -2.9894566535949707 3.1569678783416748 0.22499999403953552
v -3.1037018299102783 3.4335649013519287 0.22499999403953552
v -3.1037018299102783 3.4335649013519287 0
v -3.1037018299102783 3.4335649013519287 0.44999998807907104
v -3.3849694728851318 3.1137142181396484 0
v -3.3849694728851318 3.1137142181396484 0.44999998807907104
v -3.1037018299102783 3.4335649013519287 0.22499999403953552
v -3.2443356513977051 3.2736396789550781 0
v -3.3849694728851318 3.1137142181396484 0.22499999403953552
v -3.2443356513977051 3.2736396789550781 0.44999998807907104
v -3.0615415573120117 2.3572847843170166 0
v -3.0615415573120117 2.3572847843170166 0.44999998807907104
v -2.7041797637939453 2.4662899971008301 0
v -2.7041797637939453 2.4662899971008301 0.44999998807907104
v -3.0615415573120117 2.3572847843170166 0.22499999403953552
v -2.8828606605529785 2.4117875099182129 0
v -2.7041797637939453 2.4662899971008301 0.22499999403953552
v -2.8828606605529785 2.4117875099182129 0.44999998807907104
v -2.7041797637939453 2.4662899971008301 0
v -2.7041797637939453 2.4662899971008301 0.44999998807907104
v -2.8649184703826904 2.8554515838623047 0
v -2.8649184703826904 2.8554515838623047 0.44999998807907104
v -2.7041797637939453 2.4662899971008301 0.22499999403953552
v -2.7845492362976074 2.6608707904815674 0
v -2.8649184703826904 2.8554515838623047 0.22499999403953552
v -2.7845492362976074 2.6608707904815674 0.44999998807907104
v -2.8649184703826904 2.8554515838623047 0
v -2.8649184703826904 2.8554515838623047 0.44999998807907104
v -2.5821757316589355 2.9722354412078857 0
v -2.5821757316589355 2.9722354412078857 0.44999998807907104
v -2.8649184703826904 2.8554515838623047 0.22499999403953552
v -2.5821757316589355 2.9722354412078857 0.22499999403953552
v -2.5821757316589355 2.9722354412078857 0
v -2.5821757316589355 2.9722354412078857 0.44999998807907104
v -2.7067136764526367 3.2737517356872559 0
v -2.7067136764526367 3.2737517356872559 0.44999998807907104
v -2.7067136764526367 3.2737517356872559 0.22499999403953552
v -2.5821757316589355 2.9722354412078857 0.22499999403953552
v -3.2232556343078613 2.7354996204376221 0
v -3.1642401218414307 2.5974750518798828 0
v -2.7067136764526367 3.2737517356872559 0
v -2.9894566535949707 3.1569678783416748 0
v -3.1037018299102783 3.4335649013519287 0
v -3.2443356513977051 3.2736396789550781 0
v -3.3849694728851318 3.1137142181396484 0
v -3.304112434387207 2.9246070384979248 0
v -3.0615415573120117 2.3572847843170166 0
v -2.8828606605529785 2.4117875099182129 0
v -2.7041797637939453 2.4662899971008301 0
v -2.7845492362976074 2.6608707904815674 0
v -2.8649184703826904 2.8554515838623047 0
v -2.5821757316589355 2.9722354412078857 0
v -3.2232556343078613 2.7354996204376221 0.44999998807907104
v -3.1642401218414307 2.5974750518798828 0.44999998807907104
v -2.7067136764526367 3.2737517356872559 0.44999998807907104
v -2.9894566535949707 3.1569678783416748 0.44999998807907104
v -3.1037018299102783 3.4335649013519287 0.44999998807907104
v -3.2443356513977051 3.2736396789550781 0.44999998807907104
v -3.3849694728851318 3.1137142181396484 0.44999998807907104
v -3.304112434387207 2.9246070384979248 0.44999998807907104
v -3.0615415573120117 2.3572847843170166 0.44999998807907104
v -2.8828606605529785 2.4117875099182129 0.44999998807907104
v -2.7041797637939453 2.4662899971008301 0.44999998807907104
v -2.7845492362976074 2.6608707904815674 0.44999998807907104
v -2.8649184703826904 2.8554515838623047 0.44999998807907104
v -2.5821757316589355 2.9722354412078857 0.44999998807907104
v -3.1642401218414307 2.5974750518798828 0.44999998807907104
v -3.0615415573120117 2.3572847843170166 0
v -3.0615415573120117 2.3572847843170166 0.44999998807907104
v -3.1642401218414307 2.5974750518798828 0.22499999403953552
v -3.0615415573120117 2.3572847843170166 0.22499999403953552
v -3.1642401218414307 2.5974750518798828 0
v -3.3849694728851318 3.1137142181396484 0
v -3.3849694728851318 3.1137142181396484 0.44999998807907104
v -3.2232556343078613 2.7354996204376221 0
v -3.2232556343078613 2.7354996204376221 0.44999998807907104
v -3.2232556343078613 2.7354996204376221 0.22499999403953552
v -3.3849694728851318 3.1137142181396484 0.22499999403953552
v -3.304112434387207 2.9246070384979248 0
v -3.304112434387207 2.9246070384979248 0.44999998807907104
vt 0.4382120668888092 0.20959579944610596
vt 0.2198384553194046 0.20959579944610596
vt 0.4382120668888092 0.35939890146255493
vt 0.2198384553194046 0.35939890146255493
vt 0.4382120668888092 0.28449735045433044
vt 0.3290252685546875 0.35939890146255493
vt 0.2198384553194046 0.28449735045433044
vt 0.3290252685546875 0.20959579944610596
vt 0.2183736115694046 0.70984542369842529
vt 0 0.70984542369842529
vt 0.2183736115694046 0.78317952156066895
vt 0 0.78317952156066895
vt 0.1091868057847023 0.70984542369842529
vt 0.1091868057847023 0.78317952156066895
vt 0.659515380859375 0
vt 0.4396769106388092 0
vt 0.659515380859375 0.14980308711528778
vt 0.4396769106388092 0.14980308711528778
vt 0.54959613084793091 0
vt 0.659515380859375 0.07490154355764389
vt 0.54959613084793091 0.14980308711528778
vt 0.4396769106388092 0.07490154355764389
vt 0.69528955221176147 0.073334097862243652
vt 0.69528955221176147 0.1452033519744873
vt 0.84509265422821045 0.073334097862243652
vt 0.84509265422821045 0.1452033519744873
vt 0.77019113302230835 0.073334097862243652
vt 0.77019113302230835 0.1452033519744873
vt 0.69528955221176147 0
vt 0.69528955221176147 0.071869254112243652
vt 0.84509265422821045 0
vt 0.84509265422821045 0.071869254112243652
vt 0.77019113302230835 0
vt 0.77019113302230835 0.071869254112243652
vt 0.4382120668888092 0
vt 0.2198384553194046 0
vt 0.4382120668888092 0.14944708347320557
vt 0.2198384553194046 0.14944708347320557
vt 0.3290252685546875 0.14944708347320557
vt 0.3290252685546875 0
vt 0.2183736115694046 0
vt 0 0
vt 0.2183736115694046 0.14619855582714081
vt 0 0.14619855582714081
vt 0.1091868057847023 0
vt 0.1091868057847023 0.14619855582714081
vt 0.4382120668888092 0.70817410945892334
vt 0.2198384553194046 0.70817410945892334
vt 0.4382120668888092 0.91625332832336426
vt 0.2198384553194046 0.91625332832336426
vt 0.3290252685546875 0.70817410945892334
vt 0.4382120668888092 0.8122137188911438
vt 0.3290252685546875 0.91625332832336426
vt 0.2198384553194046 0.8122137188911438
vt 0.91512805223464966 0.1466681957244873
vt 0.69528955221176147 0.1466681957244873
vt 0.91512805223464966 0.32772645354270935
vt 0.69528955221176147 0.32772645354270935
vt 0.80520880222320557 0.1466681957244873
vt 0.91512805223464966 0.23719732463359833
vt 0.80520880222320557 0.32772645354270935
vt 0.69528955221176147 0.23719732463359833
vt 0.4382120668888092 0.41969090700149536
vt 0.2198384553194046 0.41969090700149536
vt 0.4382120668888092 0.62538671493530273
vt 0.2198384553194046 0.62538671493530273
vt 0.3290252685546875 0.41969090700149536
vt 0.4382120668888092 0.52253878116607666
vt 0.3290252685546875 0.62538671493530273
vt 0.2198384553194046 0.52253878116607666
vt 0.2183736115694046 0.20753967761993408
vt 0 0.20753967761993408
vt 0.2183736115694046 0.35698676109313965
vt 0 0.35698676109313965
vt 0.1091868057847023 0.20753967761993408
vt 0.1091868057847023 0.35698676109313965
vt 0.659515380859375 0.15950247645378113
vt 0.4396769106388092 0.15950247645378113
vt 0.659515380859375 0.31887248158454895
vt 0.4396769106388092 0.31887248158454895
vt 0.54959613084793091 0.31887248158454895
vt 0.54959613084793091 0.15950247645378113
vt 0.72944808006286621 0.32919129729270935
vt 0.80257207155227661 0.32919129729270935
vt 0.58728587627410889 0.66313081979751587
vt 0.58544540405273438 0.51434779167175293
vt 0.4396769106388092 0.51614546775817871
vt 0.48437529802322388 0.42266839742660522
vt 0.52907365560531616 0.32919129729270935
vt 0.62926089763641357 0.32919129729270935
vt 0.92982250452041626 0.32919129729270935
vt 0.93962991237640381 0.41952502727508545
vt 0.94943737983703613 0.50985878705978394
vt 0.84689205884933472 0.5111234188079834
vt 0.74434667825698853 0.51238811016082764
vt 0.74618709087371826 0.66117113828659058
vt 0.72944808006286621 0.66459566354751587
vt 0.80257207155227661 0.66459566354751587
vt 0.58728587627410889 0.99853515625
vt 0.58544540405273438 0.84975212812423706
vt 0.4396769106388092 0.85154986381530762
vt 0.48437529802322388 0.75807273387908936
vt 0.52907365560531616 0.66459566354751587
vt 0.62926089763641357 0.66459566354751587
vt 0.92982250452041626 0.66459566354751587
vt 0.93962991237640381 0.75492936372756958
vt 0.94943737983703613 0.84526312351226807
vt 0.84689205884933472 0.84652775526046753
vt 0.74434667825698853 0.84779244661331177
vt 0.74618709087371826 0.99657547473907471
vt 0 0.81573349237442017
vt 0.2183736115694046 0.94334959983825684
vt 0 0.94334959983825684
vt 0.1091868057847023 0.81573349237442017
vt 0.1091868057847023 0.94334959983825684
vt 0.2183736115694046 0.81573349237442017
vt 0.2183736115694046 0.41969090700149536
vt 0 0.41969090700149536
vt 0.2183736115694046 0.62064111232757568
vt 0 0.62064111232757568
vt 0.1091868057847023 0.62064111232757568
vt 0.1091868057847023 0.41969090700149536
vt 0.2183736115694046 0.52016597986221313
vt 0 0.52016597986221313
vn -0.39314249157905579 0.91947758197784424 0
vn -0.39314249157905579 0.91947758197784424 0
vn -0.39314249157905579 0.91947758197784424 0
vn -0.39314249157905579 0.91947758197784424 0
vn -0.39314249157905579 0.91947758197784424 0
vn -0.39314249157905579 0.91947758197784424 0
vn -0.39314249157905579 0.91947758197784424 0
vn -0.39314249157905579 0.91947758197784424 0
vn -0.91947758197784424 -0.39314249157905579 0
vn -0.91947758197784424 -0.39314249157905579 0
vn -0.91947758197784424 -0.39314249157905579 0
vn -0.91947758197784424 -0.39314249157905579 0
vn -0.91947758197784424 -0.39314249157905579 0
vn -0.91947758197784424 -0.39314249157905579 0
vn 0.39314249157905579 -0.91947758197784424 0
vn 0.39314249157905579 -0.91947758197784424 0
vn 0.39314249157905579 -0.91947758197784424 0
vn 0.39314249157905579 -0.91947758197784424 0
vn 0.39314249157905579 -0.91947758197784424 0
vn 0.39314249157905579 -0.91947758197784424 0
vn 0.39314249157905579 -0.91947758197784424 0
vn 0.39314249157905579 -0.91947758197784424 0
vn 0 0 -1
vn 0 0 -1
vn 0 0 -1
vn 0 0 -1
vn 0 0 -1
vn 0 0 -1
vn 0 0 1
vn 0 0 1
vn 0 0 1
vn 0 0 1
vn 0 0 1
vn 0 0 1
vn -0.38175660371780396 0.9242628812789917 0
vn -0.38175660371780396 0.9242628812789917 0
vn -0.38175660371780396 0.9242628812789917 0
vn -0.38175660371780396 0.9242628812789917 0
vn -0.38175660371780396 0.9242628812789917 0
vn -0.38175660371780396 0.9242628812789917 0
vn 0.9242628812789917 0.38175660371780396 0
vn 0.9242628812789917 0.38175660371780396 0
vn 0.9242628812789917 0.38175660371780396 0
vn 0.9242628812789917 0.38175660371780396 0
vn 0.9242628812789917 0.38175660371780396 0
vn 0.9242628812789917 0.38175660371780396 0
vn -0.75094753503799438 0.6603618860244751 0
vn -0.75094753503799438 0.6603618860244751 0
vn -0.75094753503799438 0.6603618860244751 0
vn -0.75094753503799438 0.6603618860244751 0
vn -0.75094753503799438 0.6603618860244751 0
vn -0.75094753503799438 0.6603618860244751 0
vn -0.75094753503799438 0.6603618860244751 0
vn -0.75094753503799438 0.6603618860244751 0
vn 0.29175662994384766 -0.95649260282516479 0
vn 0.29175662994384766 -0.95649260282516479 0
vn 0.29175662994384766 -0.95649260282516479 0
vn 0.29175662994384766 -0.95649260282516479 0
vn 0.29175662994384766 -0.95649260282516479 0
vn 0.29175662994384766 -0.95649260282516479 0
vn 0.29175662994384766 -0.95649260282516479 0
vn 0.29175662994384766 -0.95649260282516479 0
vn 0.9242628812789917 0.38175660371780396 0
vn 0.9242628812789917 0.38175660371780396 0
vn 0.9242628812789917 0.38175660371780396 0
vn 0.9242628812789917 0.38175660371780396 0
vn 0.9242628812789917 0.38175660371780396 0
vn 0.9242628812789917 0.38175660371780396 0
vn 0.9242628812789917 0.38175660371780396 0
vn 0.9242628812789917 0.38175660371780396 0
vn 0.38175660371780396 -0.9242628812789917 0
vn 0.38175660371780396 -0.9242628812789917 0
vn 0.38175660371780396 -0.9242628812789917 0
vn 0.38175660371780396 -0.9242628812789917 0
vn 0.38175660371780396 -0.9242628812789917 0
vn 0.38175660371780396 -0.9242628812789917 0
vn 0.9242628812789917 0.38175660371780396 0
vn 0.9242628812789917 0.38175660371780396 0
vn 0.9242628812789917 0.38175660371780396 0
vn 0.9242628812789917 0.38175660371780396 0
vn 0.9242628812789917 0.38175660371780396 0
vn 0.9242628812789917 0.38175660371780396 0
vn 0 0 -1
vn 0 0 -1
vn 0 0 -1
vn 0 0 -1
vn 0 0 -1
vn 0 0 -1
vn 0 0 -1
vn 0 0 -1
vn 0 0 -1
vn 0 0 -1
vn 0 0 -1
vn 0 0 -1
vn 0 0 -1
vn 0 0 -1
vn 0 0 1
vn 0 0 1
vn 0 0 1
vn 0 0 1
vn 0 0 1
vn 0 0 1
vn 0 0 1
vn 0 0 1
vn 0 0 1
vn 0 0 1
vn 0 0 1
vn 0 0 1
vn 0 0 1
vn 0 0 1
vn -0.91947758197784424 -0.39314249157905579 0
vn -0.91947758197784424 -0.39314249157905579 0
vn -0.91947758197784424 -0.39314249157905579 0
vn -0.91947758197784424 -0.39314249157905579 0
vn -0.91947758197784424 -0.39314249157905579 0
vn -0.91947758197784424 -0.39314249157905579 0
vn -0.91947758197784424 -0.39314249157905579 0
vn -0.91947758197784424 -0.39314249157905579 0
vn -0.91947758197784424 -0.39314249157905579 0
vn -0.91947758197784424 -0.39314249157905579 0
vn -0.91947758197784424 -0.39314249157905579 0
vn -0.91947758197784424 -0.39314249157905579 0
vn -0.91947758197784424 -0.39314249157905579 0
vn -0.91947758197784424 -0.39314249157905579 0
f 8/8/8 1/1/1 5/5/5
f 8/8/8 7/7/7 2/2/2
f 6/6/6 8/8/8 5/5/5
f 8/8/8 6/6/6 7/7/7
f 6/6/6 4/4/4 7/7/7
f 3/3/3 6/6/6 5/5/5
f 13/13/13 9/9/9 11/11/11 14/14/14
f 10/10/10 13/13/13 14/14/14 12/12/12
f 19/19/19 15/15/15 20/20/20
f 19/19/19 22/22/22 16/16/16
f 21/21/21 19/19/19 20/20/20 17/17/17
f 19/19/19 21/21/21 18/18/18 22/22/22
f 23/23/23 24/24/24 28/28/28 27/27/27
f 26/26/26 25/25/25 27/27/27 28/28/28
f 29/29/29 33/33/33 34/34/34 30/30/30
f 32/32/32 34/34/34 33/33/33 31/31/31
f 40/40/40 35/35/35 37/37/37 39/39/39
f 36/36/36 40/40/40 39/39/39 38/38/38
f 45/45/45 41/41/41 43/43/43 46/46/46
f 42/42/42 45/45/45 46/46/46 44/44/44
f 51/51/51 47/47/47 52/52/52
f 51/51/51 54/54/54 48/48/48
f 53/53/53 51/51/51 52/52/52 49/49/49
f 51/51/51 53/53/53 50/50/50 54/54/54
f 59/59/59 55/55/55 60/60/60
f 59/59/59 62/62/62 56/56/56
f 61/61/61 59/59/59 60/60/60 57/57/57
f 59/59/59 61/61/61 62/62/62
f 61/61/61 58/58/58 62/62/62
f 67/67/67 63/63/63 68/68/68
f 67/67/67 70/70/70 64/64/64
f 69/69/69 67/67/67 68/68/68
f 67/67/67 69/69/69 70/70/70
f 69/69/69 66/66/66 70/70/70
f 65/65/65 69/69/69 68/68/68
f 75/75/75 71/71/71 73/73/73 76/76/76
f 72/72/72 75/75/75 76/76/76 74/74/74
f 82/82/82 77/77/77 79/79/79 81/81/81
f 78/78/78 82/82/82 81/81/81 80/80/80
f 88/88/88 90/90/90 89/89/89
f 88/88/88 83/83/83 90/90/90
f 86/86/86 88/88/88 87/87/87
f 86/86/86 85/85/85 96/96/96
f 95/95/95 88/88/88 86/86/86
f 83/83/83 88/88/88 92/92/92
f 92/92/92 91/91/91 84/84/84
f 88/88/88 95/95/95 92/92/92
f 86/86/86 96/96/96 95/95/95
f 92/92/92 94/94/94 93/93/93
f 94/94/94 92/92/92 95/95/95
f 84/84/84 83/83/83 92/92/92
f 102/102/102 103/103/103 104/104/104
f 102/102/102 104/104/104 97/97/97
f 100/100/100 101/101/101 102/102/102
f 100/100/100 110/110/110 99/99/99
f 109/109/109 100/100/100 102/102/102
f 97/97/97 106/106/106 102/102/102
f 106/106/106 98/98/98 105/105/105
f 102/102/102 106/106/106 109/109/109
f 100/100/100 109/109/109 110/110/110
f 106/106/106 107/107/107 108/108/108
f 108/108/108 109/109/109 106/106/106
f 98/98/98 106/106/106 97/97/97
f 114/114/114 116/116/116 112/112/112 115/115/115
f 111/111/111 114/114/114 115/115/115 113/113/113
f 122/122/122 117/117/117 123/123/123
f 122/122/122 124/124/124 118/118/118
f 121/121/121 122/122/122 123/123/123
f 122/122/122 121/121/121 124/124/124
f 121/121/121 120/120/120 124/124/124
f 119/119/119 121/121/121 123/123/123
