# Rhino

mtllib obj_8.mtl
usemtl diffuse_ControlText
v -5.9665827751159668 0.96957677602767944 0
v -5.9665827751159668 0.96957677602767944 0.44999998807907104
v -6.699272632598877 0.1363796591758728 0
v -6.699272632598877 0.1363796591758728 0.44999998807907104
v -6.3329277038574219 0.55297821760177612 0
v -6.3329277038574219 0.55297821760177612 0.44999998807907104
v -6.699272632598877 0.1363796591758728 0
v -6.699272632598877 0.1363796591758728 0.44999998807907104
v -6.2878170013427734 -0.82592815160751343 0
v -6.2878170013427734 -0.82592815160751343 0.44999998807907104
v -6.4935445785522461 -0.34477424621582031 0
v -6.2878170013427734 -0.82592815160751343 0.22499999403953552
v -6.4935445785522461 -0.34477424621582031 0.44999998807907104
v -6.2878170013427734 -0.82592815160751343 0
v -6.2878170013427734 -0.82592815160751343 0.44999998807907104
v -5.3438925743103027 -0.53800511360168457 0
v -5.3438925743103027 -0.53800511360168457 0.44999998807907104
v -6.2878170013427734 -0.82592815160751343 0.22499999403953552
v -5.9731755256652832 -0.72995376586914062 0
v -5.658534049987793 -0.6339794397354126 0
v -5.3438925743103027 -0.53800511360168457 0.22499999403953552
v -5.658534049987793 -0.6339794397354126 0.44999998807907104
v -5.9731755256652832 -0.72995376586914062 0.44999998807907104
v -5.3438925743103027 -0.53800511360168457 0
v -5.3438925743103027 -0.53800511360168457 0.44999998807907104
v -5.5929684638977051 0.065027646720409393 0
v -5.3438925743103027 -0.53800511360168457 0.22499999403953552
v -5.4684305191040039 -0.23648874461650848 0
v -5.5929684638977051 0.065027646720409393 0.44999998807907104
v -5.4684305191040039 -0.23648874461650848 0.44999998807907104
v -5.5929684638977051 0.065027646720409393 0.22499999403953552
v -6.114494800567627 0.52635711431503296 0
v -6.114494800567627 0.52635711431503296 0.44999998807907104
v -6.0002493858337402 0.24976016581058502 0
v -6.0002493858337402 0.24976016581058502 0.44999998807907104
v -6.114494800567627 0.52635711431503296 0.22499999403953552
v -6.0002493858337402 0.24976016581058502 0.22499999403953552
v -5.714972972869873 -0.44091764092445374 0
v -5.714972972869873 -0.44091764092445374 0.44999998807907104
v -6.0723347663879395 -0.5499228835105896 0
v -6.0723347663879395 -0.5499228835105896 0.44999998807907104
v -5.714972972869873 -0.44091764092445374 0.22499999403953552
v -5.8936538696289062 -0.49542024731636047 0
v -6.0723347663879395 -0.5499228835105896 0.22499999403953552
v -5.8936538696289062 -0.49542024731636047 0.44999998807907104
v -6.0723347663879395 -0.5499228835105896 0
v -6.0723347663879395 -0.5499228835105896 0.44999998807907104
v -6.3957624435424805 0.20650656521320343 0
v -6.3957624435424805 0.20650656521320343 0.44999998807907104
v -6.0723347663879395 -0.5499228835105896 0.22499999403953552
v -6.2340483665466309 -0.17170815169811249 0
v -6.3957624435424805 0.20650656521320343 0.22499999403953552
v -6.2340483665466309 -0.17170815169811249 0.44999998807907104
v -6.3957624435424805 0.20650656521320343 0
v -6.3957624435424805 0.20650656521320343 0.44999998807907104
v -6.114494800567627 0.52635711431503296 0
v -6.114494800567627 0.52635711431503296 0.44999998807907104
v -6.114494800567627 0.52635711431503296 0.22499999403953552
v -6.3957624435424805 0.20650656521320343 0.22499999403953552
v -6.2551288604736328 0.36643186211585999 0
v -6.2551288604736328 0.36643186211585999 0.44999998807907104
v -5.3438925743103027 -0.53800511360168457 0
v -5.9665827751159668 0.96957677602767944 0
v -6.3329277038574219 0.55297821760177612 0
v -6.699272632598877 0.1363796591758728 0
v -6.4935445785522461 -0.34477424621582031 0
v -6.2878170013427734 -0.82592815160751343 0
v -5.9731755256652832 -0.72995376586914062 0
v -5.658534049987793 -0.6339794397354126 0
v -5.4684305191040039 -0.23648874461650848 0
v -5.5929684638977051 0.065027646720409393 0
v -6.114494800567627 0.52635711431503296 0
v -6.0002493858337402 0.24976016581058502 0
v -5.714972972869873 -0.44091764092445374 0
v -5.8936538696289062 -0.49542024731636047 0
v -6.0723347663879395 -0.5499228835105896 0
v -6.2340483665466309 -0.17170815169811249 0
v -6.3957624435424805 0.20650656521320343 0
v -6.2551288604736328 0.36643186211585999 0
v -5.7175064086914062 0.36654403805732727 0
v -5.8757114410400391 -0.051756225526332855 0
v -5.8420448303222656 0.66806042194366455 0
v -5.795341968536377 -0.2463369220495224 0
v -5.3438925743103027 -0.53800511360168457 0.44999998807907104
v -5.9665827751159668 0.96957677602767944 0.44999998807907104
v -6.3329277038574219 0.55297821760177612 0.44999998807907104
v -6.699272632598877 0.1363796591758728 0.44999998807907104
v -6.4935445785522461 -0.34477424621582031 0.44999998807907104
v -6.2878170013427734 -0.82592815160751343 0.44999998807907104
v -5.9731755256652832 -0.72995376586914062 0.44999998807907104
v -5.658534049987793 -0.6339794397354126 0.44999998807907104
v -5.4684305191040039 -0.23648874461650848 0.44999998807907104
v -5.5929684638977051 0.065027646720409393 0.44999998807907104
v -6.114494800567627 0.52635711431503296 0.44999998807907104
v -6.0002493858337402 0.24976016581058502 0.44999998807907104
v -5.714972972869873 -0.44091764092445374 0.44999998807907104
v -5.8936538696289062 -0.49542024731636047 0.44999998807907104
v -6.0723347663879395 -0.5499228835105896 0.44999998807907104
v -6.2340483665466309 -0.17170815169811249 0.44999998807907104
v -6.3957624435424805 0.20650656521320343 0.44999998807907104
v -6.2551288604736328 0.36643186211585999 0.44999998807907104
v -5.7175064086914062 0.36654403805732727 0.44999998807907104
v -5.8757114410400391 -0.051756225526332855 0.44999998807907104
v -5.8420448303222656 0.66806042194366455 0.44999998807907104
v -5.795341968536377 -0.2463369220495224 0.44999998807907104
v -5.7175064086914062 0.36654403805732727 0
v -5.7175064086914062 0.36654403805732727 0.44999998807907104
v -6.0002493858337402 0.24976016581058502 0
v -6.0002493858337402 0.24976016581058502 0.44999998807907104
v -5.7175064086914062 0.36654403805732727 0.22499999403953552
v -6.0002493858337402 0.24976016581058502 0.22499999403953552
v -5.8757114410400391 -0.051756225526332855 0
v -5.8757114410400391 -0.051756225526332855 0.44999998807907104
v -5.5929684638977051 0.065027646720409393 0
v -5.5929684638977051 0.065027646720409393 0.44999998807907104
v -5.5929684638977051 0.065027646720409393 0.22499999403953552
v -5.8757114410400391 -0.051756225526332855 0.22499999403953552
v -5.7175064086914062 0.36654403805732727 0.44999998807907104
v -5.9665827751159668 0.96957677602767944 0
v -5.9665827751159668 0.96957677602767944 0.44999998807907104
v -5.7175064086914062 0.36654403805732727 0.22499999403953552
v -5.7175064086914062 0.36654403805732727 0
v -5.8420448303222656 0.66806042194366455 0
v -5.8420448303222656 0.66806042194366455 0.44999998807907104
v -5.8757114410400391 -0.051756225526332855 0
v -5.714972972869873 -0.44091764092445374 0
v -5.714972972869873 -0.44091764092445374 0.44999998807907104
v -5.714972972869873 -0.44091764092445374 0.22499999403953552
v -5.8757114410400391 -0.051756225526332855 0.44999998807907104
v -5.8757114410400391 -0.051756225526332855 0.22499999403953552
v -5.795341968536377 -0.2463369220495224 0
v -5.795341968536377 -0.2463369220495224 0.44999998807907104
vt 0.65415215492248535 0
vt 0.50866234302520752 0
vt 0.65415215492248535 0.35725730657577515
vt 0.50866234302520752 0.35725730657577515
vt 0.65415215492248535 0.17862865328788757
vt 0.50866234302520752 0.17862865328788757
vt 0.48459804058074951 0
vt 0.33910822868347168 0
vt 0.48459804058074951 0.33837082982063293
vt 0.33910822868347168 0.33837082982063293
vt 0.48459804058074951 0.16918541491031647
vt 0.4118531346321106 0.33837082982063293
vt 0.33910822868347168 0.16918541491031647
vt 0.31504392623901367 0
vt 0.16955411434173584 0
vt 0.31504392623901367 0.31906244158744812
vt 0.16955411434173584 0.31906244158744812
vt 0.24229902029037476 0
vt 0.31504392623901367 0.10635414719581604
vt 0.31504392623901367 0.21270829439163208
vt 0.24229902029037476 0.31906244158744812
vt 0.16955411434173584 0.21270829439163208
vt 0.16955411434173584 0.10635414719581604
vt 0.14548979699611664 0.58559674024581909
vt 0.14548979699611664 0.73108655214309692
vt 0.35496810078620911 0.58559674024581909
vt 0.14548979699611664 0.65834164619445801
vt 0.25022897124290466 0.58559674024581909
vt 0.35496810078620911 0.73108655214309692
vt 0.25022897124290466 0.73108655214309692
vt 0.35496810078620911 0.65834164619445801
vt 0.14548979699611664 0.35872215032577515
vt 0 0.35872215032577515
vt 0.14548979699611664 0.45547685027122498
vt 0 0.45547685027122498
vt 0.072744898498058319 0.35872215032577515
vt 0.072744898498058319 0.45547685027122498
vt 0.32370626926422119 0.46085706353187561
vt 0.17821647226810455 0.46085706353187561
vt 0.32370626926422119 0.58165144920349121
vt 0.17821647226810455 0.58165144920349121
vt 0.25096139311790466 0.46085706353187561
vt 0.32370626926422119 0.52125424146652222
vt 0.25096139311790466 0.58165144920349121
vt 0.17821647226810455 0.52125424146652222
vt 0.14548979699611664 0
vt 0 0
vt 0.14548979699611664 0.26597899198532104
vt 0 0.26597899198532104
vt 0.072744898498058319 0
vt 0.14548979699611664 0.13298949599266052
vt 0.072744898498058319 0.26597899198532104
vt 0 0.13298949599266052
vt 0.14402495324611664 0.73497295379638672
vt 0 0.73497295379638672
vt 0.14402495324611664 0.87268048524856567
vt 0 0.87268048524856567
vt 0.072012476623058319 0.87268048524856567
vt 0.072012476623058319 0.73497295379638672
vt 0.14402495324611664 0.80382668972015381
vt 0 0.80382668972015381
vt 0.99853515625 0
vt 0.99853515625 0.52735787630081177
vt 0.83837580680847168 0.44808471202850342
vt 0.67821645736694336 0.36881151795387268
vt 0.68029648065567017 0.19963899254798889
vt 0.6823764443397522 0.030466489493846893
vt 0.78776270151138306 0.020310994237661362
vt 0.89314889907836914 0.010155497118830681
vt 0.99853515625 0.10547158122062683
vt 0.99853515625 0.21094316244125366
vt 0.90008085966110229 0.41316941380500793
vt 0.90008085966110229 0.31641474366188049
vt 0.90008085966110229 0.074813015758991241
vt 0.84023332595825195 0.080580197274684906
vt 0.78038579225540161 0.086347378790378571
vt 0.77875077724456787 0.21932671964168549
vt 0.77711582183837891 0.35230609774589539
vt 0.83859831094741821 0.38273772597312927
vt 0.99853515625 0.31641474366188049
vt 0.90008085966110229 0.21094316244125366
vt 0.99853515625 0.42188632488250732
vt 0.90008085966110229 0.14287808537483215
vt 0.67675161361694336 0.35872215032577515
vt 0.67675161361694336 0.88461518287658691
vt 0.51659232378005981 0.80556219816207886
vt 0.35643294453620911 0.7265092134475708
vt 0.35851293802261353 0.55780661106109619
vt 0.36059293150901794 0.38910403847694397
vt 0.4659791886806488 0.3789767324924469
vt 0.57136541604995728 0.36884945631027222
vt 0.67675161361694336 0.46390077471733093
vt 0.67675161361694336 0.56907939910888672
vt 0.57829731702804565 0.77074390649795532
vt 0.57829731702804565 0.67425799369812012
vt 0.57829731702804565 0.43332737684249878
vt 0.51844978332519531 0.43907853960990906
vt 0.45860224962234497 0.44482970237731934
vt 0.45696729421615601 0.57743966579437256
vt 0.45533227920532227 0.71004962921142578
vt 0.51681482791900635 0.74039673805236816
vt 0.67675161361694336 0.67425799369812012
vt 0.57829731702804565 0.56907939910888672
vt 0.67675161361694336 0.77943658828735352
vt 0.57829731702804565 0.50120335817337036
vt 0.32370626926422119 0.35872215032577515
vt 0.17821647226810455 0.35872215032577515
vt 0.32370626926422119 0.45762673020362854
vt 0.17821647226810455 0.45762673020362854
vt 0.25096139311790466 0.35872215032577515
vt 0.25096139311790466 0.45762673020362854
vt 0.14548979699611664 0.47091299295425415
vt 0 0.47091299295425415
vt 0.14548979699611664 0.56981754302978516
vt 0 0.56981754302978516
vt 0.072744898498058319 0.56981754302978516
vt 0.072744898498058319 0.47091299295425415
vt 0.14548979699611664 0.88132816553115845
vt 0.35496810078620911 0.73583841323852539
vt 0.35496810078620911 0.88132816553115845
vt 0.14548979699611664 0.80858325958251953
vt 0.14548979699611664 0.73583841323852539
vt 0.25022897124290466 0.73583841323852539
vt 0.25022897124290466 0.88132816553115845
vt 0.14402495324611664 0.58559674024581909
vt 0.14402495324611664 0.72172683477401733
vt 0 0.72172683477401733
vt 0.072012476623058319 0.72172683477401733
vt 0 0.58559674024581909
vt 0.072012476623058319 0.58559674024581909
vt 0.14402495324611664 0.65366178750991821
vt 0 0.65366178750991821
vn -0.75094753503799438 0.6603618860244751 0
vn -0.75094753503799438 0.6603618860244751 0
vn -0.75094753503799438 0.6603618860244751 0
vn -0.75094753503799438 0.6603618860244751 0
vn -0.75094753503799438 0.6603618860244751 0
vn -0.75094753503799438 0.6603618860244751 0
vn -0.91947758197784424 -0.39314249157905579 0
vn -0.91947758197784424 -0.39314249157905579 0
vn -0.91947758197784424 -0.39314249157905579 0
vn -0.91947758197784424 -0.39314249157905579 0
vn -0.91947758197784424 -0.39314249157905579 0
vn -0.91947758197784424 -0.39314249157905579 0
vn -0.91947758197784424 -0.39314249157905579 0
vn 0.29175662994384766 -0.95649260282516479 0
vn 0.29175662994384766 -0.95649260282516479 0
vn 0.29175662994384766 -0.95649260282516479 0
vn 0.29175662994384766 -0.95649260282516479 0
vn 0.29175662994384766 -0.95649260282516479 0
vn 0.29175662994384766 -0.95649260282516479 0
vn 0.29175662994384766 -0.95649260282516479 0
vn 0.29175662994384766 -0.95649260282516479 0
vn 0.29175662994384766 -0.95649260282516479 0
vn 0.29175662994384766 -0.95649260282516479 0
vn 0.9242628812789917 0.38175660371780396 0
vn 0.9242628812789917 0.38175660371780396 0
vn 0.9242628812789917 0.38175660371780396 0
vn 0.9242628812789917 0.38175660371780396 0
vn 0.9242628812789917 0.38175660371780396 0
vn 0.9242628812789917 0.38175660371780396 0
vn 0.9242628812789917 0.38175660371780396 0
vn 0.9242628812789917 0.38175660371780396 0
vn -0.9242628812789917 -0.38175660371780396 0
vn -0.9242628812789917 -0.38175660371780396 0
vn -0.9242628812789917 -0.38175660371780396 0
vn -0.9242628812789917 -0.38175660371780396 0
vn -0.9242628812789917 -0.38175660371780396 0
vn -0.9242628812789917 -0.38175660371780396 0
vn -0.29175662994384766 0.95649260282516479 0
vn -0.29175662994384766 0.95649260282516479 0
vn -0.29175662994384766 0.95649260282516479 0
vn -0.29175662994384766 0.95649260282516479 0
vn -0.29175662994384766 0.95649260282516479 0
vn -0.29175662994384766 0.95649260282516479 0
vn -0.29175662994384766 0.95649260282516479 0
vn -0.29175662994384766 0.95649260282516479 0
vn 0.91947758197784424 0.39314249157905579 0
vn 0.91947758197784424 0.39314249157905579 0
vn 0.91947758197784424 0.39314249157905579 0
vn 0.91947758197784424 0.39314249157905579 0
vn 0.91947758197784424 0.39314249157905579 0
vn 0.91947758197784424 0.39314249157905579 0
vn 0.91947758197784424 0.39314249157905579 0
vn 0.91947758197784424 0.39314249157905579 0
vn 0.75094753503799438 -0.6603618860244751 0
vn 0.75094753503799438 -0.6603618860244751 0
vn 0.75094753503799438 -0.6603618860244751 0
vn 0.75094753503799438 -0.6603618860244751 0
vn 0.75094753503799438 -0.6603618860244751 0
vn 0.75094753503799438 -0.6603618860244751 0
vn 0.75094753503799438 -0.6603618860244751 0
vn 0.75094753503799438 -0.6603618860244751 0
vn 0 0 -1
vn 0 0 -1
vn 0 0 -1
vn 0 0 -1
vn 0 0 -1
vn 0 0 -1
vn 0 0 -1
vn 0 0 -1
vn 0 0 -1
vn 0 0 -1
vn 0 0 -1
vn 0 0 -1
vn 0 0 -1
vn 0 0 -1
vn 0 0 -1
vn 0 0 -1
vn 0 0 -1
vn 0 0 -1
vn 0 0 -1
vn 0 0 -1
vn 0 0 -1
vn 0 0 -1
vn 0 0 1
vn 0 0 1
vn 0 0 1
vn 0 0 1
vn 0 0 1
vn 0 0 1
vn 0 0 1
vn 0 0 1
vn 0 0 1
vn 0 0 1
vn 0 0 1
vn 0 0 1
vn 0 0 1
vn 0 0 1
vn 0 0 1
vn 0 0 1
vn 0 0 1
vn 0 0 1
vn 0 0 1
vn 0 0 1
vn 0 0 1
vn 0 0 1
vn 0.38175660371780396 -0.9242628812789917 0
vn 0.38175660371780396 -0.9242628812789917 0
vn 0.38175660371780396 -0.9242628812789917 0
vn 0.38175660371780396 -0.9242628812789917 0
vn 0.38175660371780396 -0.9242628812789917 0
vn 0.38175660371780396 -0.9242628812789917 0
vn -0.38175660371780396 0.9242628812789917 0
vn -0.38175660371780396 0.9242628812789917 0
vn -0.38175660371780396 0.9242628812789917 0
vn -0.38175660371780396 0.9242628812789917 0
vn -0.38175660371780396 0.9242628812789917 0
vn -0.38175660371780396 0.9242628812789917 0
vn 0.9242628812789917 0.38175660371780396 0
vn 0.9242628812789917 0.38175660371780396 0
vn 0.9242628812789917 0.38175660371780396 0
vn 0.9242628812789917 0.38175660371780396 0
vn 0.9242628812789917 0.38175660371780396 0
vn 0.9242628812789917 0.38175660371780396 0
vn 0.9242628812789917 0.38175660371780396 0
vn -0.9242628812789917 -0.38175660371780396 0
vn -0.9242628812789917 -0.38175660371780396 0
vn -0.9242628812789917 -0.38175660371780396 0
vn -0.9242628812789917 -0.38175660371780396 0
vn -0.9242628812789917 -0.38175660371780396 0
vn -0.9242628812789917 -0.38175660371780396 0
vn -0.9242628812789917 -0.38175660371780396 0
vn -0.9242628812789917 -0.38175660371780396 0
f 2/2/2 1/1/1 5/5/5 6/6/6
f 3/3/3 4/4/4 6/6/6 5/5/5
f 8/8/8 7/7/7 11/11/11 13/13/13
f 11/11/11 12/12/12 13/13/13
f 12/12/12 10/10/10 13/13/13
f 9/9/9 12/12/12 11/11/11
f 18/18/18 14/14/14 19/19/19
f 15/15/15 18/18/18 23/23/23
f 19/19/19 23/23/23 18/18/18
f 23/23/23 19/19/19 20/20/20 22/22/22
f 21/21/21 20/20/20 16/16/16
f 17/17/17 22/22/22 21/21/21
f 20/20/20 21/21/21 22/22/22
f 27/27/27 31/31/31 30/30/30 25/25/25
f 28/28/28 27/27/27 24/24/24
f 31/31/31 28/28/28 26/26/26
f 31/31/31 29/29/29 30/30/30
f 28/28/28 31/31/31 27/27/27
f 36/36/36 32/32/32 34/34/34 37/37/37
f 33/33/33 36/36/36 37/37/37 35/35/35
f 42/42/42 38/38/38 43/43/43
f 42/42/42 45/45/45 39/39/39
f 44/44/44 42/42/42 43/43/43
f 42/42/42 44/44/44 45/45/45
f 44/44/44 41/41/41 45/45/45
f 40/40/40 44/44/44 43/43/43
f 50/50/50 46/46/46 51/51/51
f 50/50/50 53/53/53 47/47/47
f 52/52/52 50/50/50 51/51/51
f 50/50/50 52/52/52 53/53/53
f 52/52/52 49/49/49 53/53/53
f 48/48/48 52/52/52 51/51/51
f 59/59/59 54/54/54 60/60/60
f 59/59/59 61/61/61 55/55/55
f 58/58/58 59/59/59 60/60/60
f 59/59/59 58/58/58 61/61/61
f 58/58/58 57/57/57 61/61/61
f 56/56/56 58/58/58 60/60/60
f 69/69/69 74/74/74 62/62/62
f 70/70/70 62/62/62 74/74/74
f 81/81/81 71/71/71 83/83/83
f 70/70/70 83/83/83 71/71/71
f 74/74/74 83/83/83 70/70/70
f 75/75/75 69/69/69 68/68/68
f 76/76/76 68/68/68 67/67/67
f 77/77/77 76/76/76 66/66/66
f 67/67/67 66/66/66 76/76/76
f 68/68/68 76/76/76 75/75/75
f 75/75/75 74/74/74 69/69/69
f 63/63/63 82/82/82 72/72/72
f 80/80/80 72/72/72 82/82/82
f 64/64/64 63/63/63 72/72/72
f 72/72/72 80/80/80 73/73/73
f 66/66/66 65/65/65 78/78/78
f 65/65/65 64/64/64 78/78/78
f 79/79/79 78/78/78 64/64/64
f 79/79/79 64/64/64 72/72/72
f 77/77/77 66/66/66 78/78/78
f 91/91/91 84/84/84 96/96/96
f 92/92/92 96/96/96 84/84/84
f 103/103/103 105/105/105 93/93/93
f 92/92/92 93/93/93 105/105/105
f 96/96/96 92/92/92 105/105/105
f 97/97/97 90/90/90 91/91/91
f 98/98/98 89/89/89 90/90/90
f 99/99/99 88/88/88 98/98/98
f 89/89/89 98/98/98 88/88/88
f 90/90/90 97/97/97 98/98/98
f 97/97/97 91/91/91 96/96/96
f 85/85/85 94/94/94 104/104/104
f 102/102/102 104/104/104 94/94/94
f 86/86/86 94/94/94 85/85/85
f 94/94/94 95/95/95 102/102/102
f 88/88/88 100/100/100 87/87/87
f 87/87/87 100/100/100 86/86/86
f 101/101/101 86/86/86 100/100/100
f 101/101/101 94/94/94 86/86/86
f 99/99/99 100/100/100 88/88/88
f 110/110/110 111/111/111 108/108/108 106/106/106
f 107/107/107 109/109/109 111/111/111 110/110/110
f 117/117/117 116/116/116 114/114/114 112/112/112
f 113/113/113 115/115/115 116/116/116 117/117/117
f 123/123/123 121/121/121 122/122/122
f 124/124/124 118/118/118 121/121/121
f 123/123/123 119/119/119 120/120/120 124/124/124
f 121/121/121 123/123/123 124/124/124
f 130/130/130 128/128/128 132/132/132 129/129/129
f 131/131/131 130/130/130 125/125/125
f 128/128/128 131/131/131 126/126/126
f 128/128/128 127/127/127 132/132/132
f 131/131/131 128/128/128 130/130/130
