# Rhino

mtllib obj_16.mtl
usemtl diffuse_ControlText
v 0.11965508013963699 -3.4335649013519287 0.15000000596046448
v 0.11965508013963699 -3.4335649013519287 0.44999998807907104
v 0.24842813611030579 -3.3942854404449463 0.15000000596046448
v 0.24842813611030579 -3.3942854404449463 0.44999998807907104
v 0.24842813611030579 -3.3942854404449463 0.15000000596046448
v 0.24842813611030579 -3.3942854404449463 0.44999998807907104
v 0.18974754214286804 -3.2019076347351074 0.15000000596046448
v 0.18974754214286804 -3.2019076347351074 0.44999998807907104
v 0.18974754214286804 -3.2019076347351074 0.15000000596046448
v 0.18974754214286804 -3.2019076347351074 0.44999998807907104
v 0.060974489897489548 -3.2411868572235107 0.15000000596046448
v 0.060974489897489548 -3.2411868572235107 0.44999998807907104
v 0.060974489897489548 -3.2411868572235107 0.15000000596046448
v 0.060974489897489548 -3.2411868572235107 0.44999998807907104
v 0.11965508013963699 -3.4335649013519287 0.15000000596046448
v 0.11965508013963699 -3.4335649013519287 0.44999998807907104
v 0.11965508013963699 -3.4335649013519287 0.15000000596046448
v 0.24842813611030579 -3.3942854404449463 0.15000000596046448
v 0.18974754214286804 -3.2019076347351074 0.15000000596046448
v 0.060974489897489548 -3.2411868572235107 0.15000000596046448
v 0.11965508013963699 -3.4335649013519287 0.44999998807907104
v 0.24842813611030579 -3.3942854404449463 0.44999998807907104
v 0.18974754214286804 -3.2019076347351074 0.44999998807907104
v 0.060974489897489548 -3.2411868572235107 0.44999998807907104
vt 0 0
vt 0 0.76349896192550659
vt 0.20048673450946808 0
vt 0.20048673450946808 0.76349896192550659
vt 0.20048673450946808 0
vt 0.20048673450946808 0.76349896192550659
vt 0.5 0
vt 0.5 0.76349896192550659
vt 0.5 0
vt 0.5 0.76349896192550659
vt 0.70048671960830688 0
vt 0.70048671960830688 0.76349896192550659
vt 0.70048671960830688 0
vt 0.70048671960830688 0.76349896192550659
vt 1 0
vt 1 0.76349896192550659
vt 0.29951325058937073 1
vt 0.29951325058937073 0.76349973678588867
vt 0 0.76349973678588867
vt 0 1
vt 1 0.76349973678588867
vt 1 1
vt 0.70048671960830688 1
vt 0.70048671960830688 0.76349973678588867
vn 0.29175662994384766 -0.95649260282516479 0
vn 0.29175662994384766 -0.95649260282516479 0
vn 0.29175662994384766 -0.95649260282516479 0
vn 0.29175662994384766 -0.95649260282516479 0
vn 0.95649260282516479 0.29175662994384766 0
vn 0.95649260282516479 0.29175662994384766 0
vn 0.95649260282516479 0.29175662994384766 0
vn 0.95649260282516479 0.29175662994384766 0
vn -0.29175662994384766 0.95649260282516479 0
vn -0.29175662994384766 0.95649260282516479 0
vn -0.29175662994384766 0.95649260282516479 0
vn -0.29175662994384766 0.95649260282516479 0
vn -0.95649260282516479 -0.29175662994384766 0
vn -0.95649260282516479 -0.29175662994384766 0
vn -0.95649260282516479 -0.29175662994384766 0
vn -0.95649260282516479 -0.29175662994384766 0
vn 0 0 -1
vn 0 0 -1
vn 0 0 -1
vn 0 0 -1
vn 0 0 1
vn 0 0 1
vn 0 0 1
vn 0 0 1
f 1/1/1 3/3/3 4/4/4 2/2/2
f 5/5/5 7/7/7 8/8/8 6/6/6
f 9/9/9 11/11/11 12/12/12 10/10/10
f 13/13/13 15/15/15 16/16/16 14/14/14
f 18/18/18 17/17/17 20/20/20
f 20/20/20 19/19/19 18/18/18
f 22/22/22 24/24/24 21/21/21
f 24/24/24 22/22/22 23/23/23
