# Rhino

mtllib obj_19.mtl
usemtl diffuse_ControlText
v 9.4609966278076172 -2.6603150367736816 0
v 9.4609966278076172 -2.6603150367736816 0.62999999523162842
v 9.3364582061767578 -2.3587987422943115 0
v 9.3364582061767578 -2.3587987422943115 0.62999999523162842
v 9.3364582061767578 -2.3587987422943115 0
v 9.3364582061767578 -2.3587987422943115 0.62999999523162842
v 8.8422679901123047 -2.5629186630249023 0
v 8.8422679901123047 -2.5629186630249023 0.62999999523162842
v 8.8422679901123047 -2.5629186630249023 0
v 8.8422679901123047 -2.5629186630249023 0.62999999523162842
v 8.9668054580688477 -2.8644349575042725 0
v 8.9668054580688477 -2.8644349575042725 0.62999999523162842
v 8.9668054580688477 -2.8644349575042725 0
v 8.9668054580688477 -2.8644349575042725 0.62999999523162842
v 9.4609966278076172 -2.6603150367736816 0
v 9.4609966278076172 -2.6603150367736816 0.62999999523162842
v 9.4609966278076172 -2.6603150367736816 0
v 9.3364582061767578 -2.3587987422943115 0
v 8.8422679901123047 -2.5629186630249023 0
v 8.9668054580688477 -2.8644349575042725 0
v 9.4609966278076172 -2.6603150367736816 0.62999999523162842
v 9.3364582061767578 -2.3587987422943115 0.62999999523162842
v 8.8422679901123047 -2.5629186630249023 0.62999999523162842
v 8.9668054580688477 -2.8644349575042725 0.62999999523162842
vt 0 0
vt 0 0.74562358856201172
vt 0.18946444988250732 0
vt 0.18946444988250732 0.74562358856201172
vt 0.18946444988250732 0
vt 0.18946444988250732 0.74562358856201172
vt 0.5 0
vt 0.5 0.74562358856201172
vt 0.5 0
vt 0.5 0.74562358856201172
vt 0.68946444988250732 0
vt 0.68946444988250732 0.74562358856201172
vt 0.68946444988250732 0
vt 0.68946444988250732 0.74562358856201172
vt 1 0
vt 1 0.74562358856201172
vt 0.31053555011749268 1
vt 0.31053555011749268 0.74562430381774902
vt 0 0.74562430381774902
vt 0 1
vt 1 0.74562430381774902
vt 1 1
vt 0.68946444988250732 1
vt 0.68946444988250732 0.74562430381774902
vn 0.9242628812789917 0.38175660371780396 0
vn 0.9242628812789917 0.38175660371780396 0
vn 0.9242628812789917 0.38175660371780396 0
vn 0.9242628812789917 0.38175660371780396 0
vn -0.38175660371780396 0.9242628812789917 0
vn -0.38175660371780396 0.9242628812789917 0
vn -0.38175660371780396 0.9242628812789917 0
vn -0.38175660371780396 0.9242628812789917 0
vn -0.9242628812789917 -0.38175660371780396 0
vn -0.9242628812789917 -0.38175660371780396 0
vn -0.9242628812789917 -0.38175660371780396 0
vn -0.9242628812789917 -0.38175660371780396 0
vn 0.38175660371780396 -0.9242628812789917 0
vn 0.38175660371780396 -0.9242628812789917 0
vn 0.38175660371780396 -0.9242628812789917 0
vn 0.38175660371780396 -0.9242628812789917 0
vn 0 0 -1
vn 0 0 -1
vn 0 0 -1
vn 0 0 -1
vn 0 0 1
vn 0 0 1
vn 0 0 1
vn 0 0 1
f 1/1/1 3/3/3 4/4/4 2/2/2
f 5/5/5 7/7/7 8/8/8 6/6/6
f 9/9/9 11/11/11 12/12/12 10/10/10
f 13/13/13 15/15/15 16/16/16 14/14/14
f 18/18/18 17/17/17 20/20/20
f 20/20/20 19/19/19 18/18/18
f 22/22/22 24/24/24 21/21/21
f 24/24/24 22/22/22 23/23/23
